<svg width="9891" height="1652" xmlns="http://www.w3.org/2000/svg" fill-rule="evenodd" clip-rule="evenodd">

 <g id="imagebot_1">
  <metadata id="imagebot_3"/>
  <g transform="translate(36.3798 -18.1899) matrix(1 0 0 1 -968.19 -676.81)" id="imagebot_2">
   <g id="imagebot_4">
    <polygon id="imagebot_5" fill="rgb(0, 86, 91)" points="2251,695 2251,2343 2286,2343 2286,695 "/>
    <polygon id="imagebot_6" fill="rgb(0, 86, 91)" points="10841,695 4787,695 4155,2343 10841,2343 "/>
    <polygon id="imagebot_7" fill="rgb(252, 181, 20)" points="950,695 950,2343 2250,2343 2250,695 "/>
    <polygon id="imagebot_8" fill="rgb(196, 30, 58)" points="2286,695 2286,2343 4155,2343 4787,695 "/>
   </g>
   <g id="imagebot_9">
    <path id="imagebot_10" fill="rgb(254, 254, 254)" d="M2714,1359C2692,1359 2674,1351 2659,1336C2644,1320 2636,1299 2636,1274C2636,1249 2644,1229 2659,1213C2674,1197 2692,1189 2714,1189L2714,1359zM2614,1176C2588,1200 2575,1233 2575,1274C2575,1315 2588,1348 2615,1373C2640,1397 2673,1409 2714,1409L2714,1437L2773,1437L2773,1409C2813,1409 2847,1397 2873,1373C2899,1348 2912,1316 2912,1274C2912,1233 2899,1200 2873,1176C2847,1151 2813,1139 2773,1139L2773,1111L2714,1111L2714,1139C2673,1139 2640,1151 2614,1176zM2773,1189C2794,1189 2813,1197 2828,1213C2843,1228 2851,1249 2851,1274C2851,1299 2843,1320 2828,1335C2812,1351 2794,1359 2773,1359L2773,1189z"/>
    <polygon id="imagebot_11" fill="rgb(254, 254, 254)" points="2964,1437 2964,1111 3023,1111 3023,1437 "/>
    <polygon id="imagebot_12" fill="rgb(254, 254, 254)" points="3143,1163 3059,1163 3059,1111 3287,1111 3287,1163 3203,1163 3203,1437 3143,1437 "/>
    <polygon id="imagebot_13" fill="rgb(254, 254, 254)" points="3328,1111 3387,1111 3387,1243 3504,1243 3504,1111 3563,1111 3563,1437 3504,1437 3504,1294 3387,1294 3387,1437 3328,1437 "/>
    <polygon id="imagebot_14" fill="rgb(254, 254, 254)" points="3635,1111 3808,1111 3808,1163 3694,1163 3694,1243 3799,1243 3799,1294 3694,1294 3694,1386 3810,1386 3810,1437 3635,1437 "/>
    <path id="imagebot_15" fill="rgb(254, 254, 254)" d="M4087,1432C4075,1435 4064,1437 4052,1439C4040,1441 4029,1442 4019,1442C3971,1442 3932,1429 3904,1402C3874,1374 3859,1333 3859,1280C3859,1224 3873,1182 3901,1151C3930,1121 3969,1106 4019,1106C4030,1106 4041,1107 4053,1109C4064,1112 4076,1115 4086,1119L4082,1174C4071,1168 4061,1163 4051,1161C4041,1158 4030,1157 4018,1157C3989,1157 3965,1168 3947,1191C3929,1213 3920,1241 3920,1275C3920,1309 3929,1337 3947,1359C3964,1380 3989,1391 4019,1391C4032,1391 4044,1390 4056,1388C4068,1385 4077,1382 4084,1378L4087,1432z"/>
    <polygon id="imagebot_16" fill="rgb(254, 254, 254)" points="2591,1606 2650,1606 2650,1746 2756,1606 2828,1606 2707,1759 2833,1932 2756,1932 2651,1780 2650,1932 2591,1932 "/>
    <path id="imagebot_17" fill="rgb(254, 254, 254)" d="M2882,1606L3075,1606L3075,1932L3016,1932L3016,1657L2938,1657L2938,1849C2938,1871 2932,1890 2921,1906C2906,1927 2885,1937 2858,1937L2843,1880C2860,1880 2871,1874 2877,1861C2880,1853 2882,1840 2882,1823L2882,1606z"/>
    <polygon id="imagebot_18" fill="rgb(254, 254, 254)" points="3229,1857 3113,1606 3179,1606 3257,1787 3324,1606 3385,1606 3260,1932 3199,1932 "/>
    <path id="imagebot_19" fill="rgb(254, 254, 254)" d="M3487,1786L3519,1786C3536,1786 3550,1790 3560,1797C3570,1804 3575,1817 3575,1835C3575,1852 3569,1865 3558,1872C3550,1878 3537,1880 3519,1880L3487,1880L3487,1786zM3428,1932L3513,1932C3549,1932 3577,1925 3599,1911C3623,1895 3635,1871 3635,1838C3635,1802 3625,1775 3605,1758C3586,1742 3559,1735 3523,1735L3487,1735L3487,1657L3620,1657L3620,1606L3428,1606L3428,1932z"/>
   </g>
   <path id="imagebot_20" fill="rgb(196, 30, 58)" d="M1581,1009C1595,1010 1613,1026 1619,1044C1625,1058 1620,1081 1607,1082C1594,1083 1584,1056 1573,1046C1559,1032 1553,1032 1533,1046C1506,1066 1496,1089 1477,1113C1462,1131 1456,1142 1463,1146C1466,1148 1525,1126 1578,1126C1605,1126 1676,1138 1691,1108C1696,1098 1694,1089 1694,1069C1694,1035 1702,997 1734,1012C1751,1019 1747,1045 1742,1062C1738,1071 1734,1076 1732,1086C1730,1096 1726,1108 1730,1115C1733,1121 1760,1120 1779,1118C1795,1116 1812,1112 1826,1112C1850,1110 1872,1110 1891,1114C1919,1120 1934,1122 1957,1126C1969,1128 1963,1104 1959,1095C1947,1068 1942,1048 1928,1031C1920,1020 1911,1015 1889,1024C1878,1028 1860,1051 1848,1050C1832,1049 1838,1018 1846,1010C1855,1000 1870,994 1881,990C1912,981 1928,1002 1947,1017C1973,1037 2001,1078 2010,1103C2017,1124 2022,1138 2018,1161C2012,1189 1947,1181 1921,1183C1888,1185 1852,1196 1823,1209C1795,1220 1782,1242 1769,1266C1752,1299 1738,1329 1730,1365C1720,1407 1727,1448 1734,1486C1753,1573 1753,1667 1744,1760C1736,1844 1732,2003 1737,2037C1738,2046 1742,2061 1734,2063C1714,2062 1699,2034 1697,2019C1694,1994 1695,1968 1695,1942C1696,1886 1685,1802 1681,1746C1677,1688 1671,1629 1661,1574C1652,1527 1650,1473 1635,1469C1620,1465 1604,1489 1596,1502C1571,1545 1564,1554 1548,1584C1528,1620 1506,1660 1489,1689C1465,1731 1441,1766 1418,1813C1390,1868 1365,1915 1336,1970C1324,1994 1325,2001 1317,2015C1305,2034 1304,2044 1282,2051C1267,2056 1230,2077 1230,2061C1230,2049 1247,2036 1255,2025C1281,1991 1312,1950 1326,1912C1339,1878 1357,1846 1392,1751C1410,1703 1431,1635 1458,1580C1503,1489 1536,1463 1560,1394C1577,1345 1586,1296 1577,1251C1569,1213 1517,1210 1483,1210C1440,1211 1369,1228 1360,1206C1352,1184 1413,1117 1447,1087C1472,1065 1523,1016 1563,1009C1572,1008 1581,1009 1581,1009z"/>
   <polygon id="imagebot_21" fill="rgb(0, 86, 91)" points="4084,2347 4123,2343 4753,695 4717,695 "/>
   <g id="imagebot_22">
    <path id="imagebot_23" fill="rgb(254, 254, 254)" d="M5276,1583L5424,1076L5434,1076L5380,1583L5276,1583zM4819,2096L5103,2096L5216,1760L5367,1760L5341,2096L5673,2096L5714,860L5291,860L4819,2096z"/>
    <polygon id="imagebot_24" fill="rgb(254, 254, 254)" points="6053,2096 5767,2096 5924,1261 5734,1261 5764,1103 6432,1103 6403,1261 6211,1261 "/>
    <path id="imagebot_25" fill="rgb(254, 254, 254)" d="M6613,1829C6584,1992 6469,2115 6198,2115L6233,1925C6299,1925 6333,1895 6347,1829L6483,1103L7138,1103L6952,2096L6665,2096L6818,1279L6717,1279L6613,1829z"/>
    <path id="imagebot_26" fill="rgb(254, 254, 254)" d="M7414,1485L7447,1307C7453,1282 7470,1255 7508,1255C7547,1255 7555,1282 7549,1307L7516,1485L7414,1485zM7054,1885C7024,2034 7165,2109 7348,2109C7528,2109 7699,2034 7729,1885L7762,1702L7475,1702L7440,1893C7434,1918 7415,1945 7377,1945C7338,1945 7333,1918 7339,1893L7387,1635L7775,1635L7834,1315C7864,1166 7718,1091 7538,1091C7355,1091 7189,1166 7159,1315L7054,1885z"/>
    <polygon id="imagebot_27" fill="rgb(254, 254, 254)" points="8195,2096 7908,2096 8066,1261 7876,1261 7905,1103 8574,1103 8544,1261 8352,1261 "/>
    <polygon id="imagebot_28" fill="rgb(252, 181, 20)" points="8441,2096 8627,1103 8914,1103 8727,2096 "/>
    <polygon id="imagebot_29" fill="rgb(196, 30, 58)" points="8636,1048 8674,860 8960,860 8923,1048 "/>
    <polygon id="imagebot_30" fill="rgb(252, 181, 20)" points="8779,2096 9012,860 9330,860 9227,1407 9231,1407 9495,860 9809,860 9519,1373 9578,2096 9262,2096 9224,1449 9219,1449 9097,2096 "/>
    <path id="imagebot_31" fill="rgb(252, 181, 20)" d="M10003,1893C9997,1918 9978,1945 9939,1945C9901,1945 9895,1918 9901,1893L10010,1307C10016,1282 10032,1255 10071,1255C10109,1255 10117,1282 10111,1307L10003,1893zM10396,1315C10426,1166 10281,1091 10100,1091C9917,1091 9751,1166 9721,1315L9616,1885C9586,2034 9727,2109 9910,2109C10091,2109 10261,2034 10291,1885L10396,1315z"/>
   </g>
  </g>
  <title>imagebot_1</title>
 </g>
</svg>